Coordinates
version=1
nRows=9
nColumns=24
inDegrees=yes

Units are S.I. units (second, meters, Newtons, ...)
Angles are in degrees.

endheader
time	pelvis_tilt	pelvis_list	pelvis_rotation	pelvis_tx	pelvis_ty	pelvis_tz	hip_flexion_r	hip_adduction_r	hip_rotation_r	knee_angle_r	ankle_angle_r	subtalar_angle_r	mtp_angle_r	hip_flexion_l	hip_adduction_l	hip_rotation_l	knee_angle_l	ankle_angle_l	subtalar_angle_l	mtp_angle_l	lumbar_extension	lumbar_bending	lumbar_rotation
      0.01000000	     61.90254152	      5.32721151	      9.33057019	      0.77290201	      1.08345526	     -0.27135909	     -4.61156161	    -11.59258245	     -4.36260114	    -52.31082348	    -16.53530842	      0.69387155	     48.06242355	     14.84029633	    -15.54447966	      1.68298703	     -4.38460014	    -20.11772304	      6.14798307	    -20.77832690	      0.00000000	      0.00000000	      0.00000000
      0.02000000	     61.89540699	      5.34521628	      9.32266387	      0.77290022	      1.08344064	     -0.27136104	     -4.59980699	    -11.61057337	     -4.35199483	    -52.31605263	    -16.54234175	      0.68333020	     48.06277111	     14.84922334	    -15.51002172	      1.57711838	     -4.37806790	    -20.28172701	      6.02872641	    -20.80014124	      0.00000000	      0.00000000	      0.00000000
      0.03000000	     61.89195337	      5.35415839	      9.31724170	      0.77291217	      1.08343397	     -0.27135734	     -4.59346313	    -11.62079515	     -4.34630600	    -52.31922605	    -16.54305935	      0.68015909	     48.06499957	     14.85044000	    -15.49261770	      1.53140732	     -4.37614191	    -20.36749563	      5.97172459	    -20.81600557	      0.00000000	      0.00000000	      0.00000000
      0.04000000	     61.89142071	      5.35613595	      9.31399219	      0.77292337	      1.08343378	     -0.27135005	     -4.59181817	    -11.62476548	     -4.34436741	    -52.32076458	    -16.53964595	      0.68263038	     48.06844122	     14.84732615	    -15.48694805	      1.52942790	     -4.37787931	    -20.39419164	      5.96185930	    -20.82574086	      0.00000000	      0.00000000	      0.00000000
      0.05000000	     61.89282243	      5.35391465	      9.31252951	      0.77292502	      1.08343533	     -0.27134521	     -4.59357583	    -11.62428372	     -4.34521338	    -52.32097413	    -16.53455162	      0.68842266	     48.07234649	     14.84277715	    -15.48738131	      1.55266998	     -4.38223167	    -20.38396961	      5.98153775	    -20.82925348	      0.00000000	      0.00000000	      0.00000000
      0.06000000	     61.89519077	      5.35008349	      9.31246685	      0.77291931	      1.08343659	     -0.27134551	     -4.59727010	    -11.62131511	     -4.34817963	    -52.32014156	    -16.52982421	      0.69502740	     48.07609536	     14.83825951	    -15.48954466	      1.58525318	     -4.38815979	    -20.35684215	      6.01474832	    -20.82674679	      0.00000000	      0.00000000	      0.00000000
      0.07000000	     61.89792328	      5.34644767	      9.31334394	      0.77291363	      1.08344182	     -0.27134737	     -4.60178730	    -11.61781943	     -4.35261334	    -52.31875572	    -16.52674787	      0.70018726	     48.07930990	     14.83398733	    -15.49087150	      1.61625311	     -4.39456892	    -20.32783885	      6.04936356	    -20.81887383	      0.00000000	      0.00000000	      0.00000000
      0.08000000	     61.90095711	      5.34393954	      9.31443600	      0.77291207	      1.08345329	     -0.27134608	     -4.60653384	    -11.61530058	     -4.35766429	    -52.31751467	    -16.52577322	      0.70230462	     48.08186504	     14.82946901	    -15.49034897	      1.63993369	     -4.40032466	    -20.30606843	      6.07790118	    -20.80676583	      0.00000000	      0.00000000	      0.00000000
      0.09000000	     61.90460440	      5.34280825	      9.31474252	      0.77291320	      1.08346408	     -0.27134146	     -4.61126659	    -11.61441987	     -4.36233490	    -52.31711255	    -16.52667247	      0.70068677	     48.08382186	     14.82395893	    -15.48794010	      1.65462428	     -4.40440111	    -20.29510661	      6.09709682	    -20.79191753	      0.00000000	      0.00000000	      0.00000000
